# xmcd
#
# Track frame offsets:
#	150
#	16070
#	33221
#	47029
#	59870
#	83119
#	94659
#	111693
#	125914
#	140993
#	156634
#	171188
#	183549
#	200340
#	214151
#	225472
#	237233
#	253562
#	268160
#	279224
#	297277
#
# Disc length: 4281 seconds
#
# Revision: 1
# Processed by: cddbd v1.5.1PL0 Copyright (c) Steve Scherf et al.
# Submitted via: EasyCDDAExtractor 6.2.0.3
#
DISCID=4510b715
DTITLE=Varios Artistas - Música Religiosa - Varios Artistas - Lo mejor del con
DTITLE=cierto de oraciones Vol. 2
DYEAR=1990
DGENRE=Religión
TTITLE0=El Retorno de Cristo
TTITLE1=Amor
TTITLE2=Yo volveré a cantar
TTITLE3=Canción de la Esperanza
TTITLE4=Sí
TTITLE5=Cuando el pobre nada tiene
TTITLE6=Amor y unidad
TTITLE7=Nada me podrá vencer
TTITLE8=Vengan a el
TTITLE9=Soneto al Crucificado
TTITLE10=Hoy señor me llamas
TTITLE11=Espera mi Señor crucificado
TTITLE12=Jesús,Jesús
TTITLE13=Pescador de hombres
TTITLE14=Himno cotidiano
TTITLE15=Noche y día
TTITLE16=Dar
TTITLE17=Todo viene y se va
TTITLE18=Compromiso
TTITLE19=Ave María
TTITLE20=Gracias a la vida
EXTD=
EXTT0=
EXTT1=
EXTT2=
EXTT3=
EXTT4=
EXTT5=
EXTT6=
EXTT7=
EXTT8=
EXTT9=
EXTT10=
EXTT11=
EXTT12=
EXTT13=
EXTT14=
EXTT15=
EXTT16=
EXTT17=
EXTT18=
EXTT19=
EXTT20=
PLAYORDER=
